<?xml version="1.0" standalone="no"?>
<!DOCTYPE svg PUBLIC "-//W3C//DTD SVG 20010904//EN"
 "http://www.w3.org/TR/2001/REC-SVG-20010904/DTD/svg10.dtd">
<svg version="1.0" xmlns="http://www.w3.org/2000/svg"
 width="310.000000pt" height="310.000000pt" viewBox="0 0 310.000000 310.000000"
 preserveAspectRatio="xMidYMid meet">
<metadata>
Created by potrace 1.11, written by Peter Selinger 2001-2013
</metadata>
<g transform="translate(0.000000,310.000000) scale(0.100000,-0.100000)"
fill="#000000" stroke="none">
<path d="M1425 2482 c-60 -11 -174 -57 -230 -93 -124 -78 -231 -226 -268 -370
-17 -67 -21 -219 -7 -274 6 -22 13 -50 15 -61 19 -87 114 -229 196 -294 171
-135 350 -175 564 -126 189 42 372 214 434 408 23 70 26 94 25 208 -1 99 -5
125 -29 190 -58 157 -166 279 -310 351 -118 58 -273 83 -390 61z m240 -72 c59
-13 165 -59 165 -71 0 -5 5 -9 11 -9 20 0 99 -72 136 -124 21 -28 40 -53 43
-56 3 -3 16 -28 27 -55 140 -331 -46 -698 -395 -776 -298 -66 -604 132 -666
434 -73 353 205 683 564 671 36 -2 88 -8 115 -14z"/>
<path d="M1470 2322 c-112 -15 -242 -94 -310 -189 -41 -57 -84 -158 -75 -173
3 -5 1 -11 -4 -14 -9 -6 -7 -126 3 -184 10 -64 67 -162 125 -220 52 -52 140
-106 194 -119 90 -21 184 -22 245 -2 18 6 39 12 45 13 20 4 71 30 85 43 7 7
16 13 20 13 14 0 90 77 118 120 61 92 84 178 78 289 -15 259 -262 458 -524
423z"/>
<path d="M2262 1102 c-24 -4 -52 -52 -52 -91 0 -11 -9 -21 -22 -25 l-23 -6 23
-19 c20 -18 22 -27 22 -129 0 -109 0 -109 23 -105 23 5 23 7 22 106 -2 103 5
130 31 120 9 -3 14 2 14 16 0 14 -6 21 -19 21 -24 0 -34 25 -21 51 10 17 22
23 41 21 4 -1 9 7 12 17 5 21 -13 29 -51 23z"/>
<path d="M637 1079 c-64 -17 -87 -65 -88 -178 -1 -97 23 -153 72 -170 43 -15
64 -14 100 5 31 15 65 76 54 94 -12 20 -36 9 -47 -20 -20 -60 -85 -69 -118
-17 -17 27 -22 139 -9 188 11 42 24 56 61 63 30 5 68 -24 68 -53 0 -21 28 -37
42 -23 10 10 -6 67 -24 86 -13 12 -48 27 -73 31 -5 1 -23 -2 -38 -6z"/>
<path d="M1851 1076 c-16 -19 -10 -38 11 -42 22 -3 32 26 15 43 -12 12 -16 12
-26 -1z"/>
<path d="M1457 1044 c-3 -3 -3 -17 -1 -30 3 -19 0 -24 -15 -24 -11 0 -22 -4
-25 -8 -5 -9 8 -34 18 -33 3 1 10 1 15 1 5 0 8 -35 7 -78 -2 -102 7 -140 39
-148 13 -3 29 -3 34 1 18 10 12 32 -9 38 -18 5 -20 14 -20 96 0 88 3 97 33 92
4 0 7 8 7 19 0 13 -7 20 -20 20 -16 0 -20 7 -20 30 0 22 -5 30 -18 30 -10 0
-21 -3 -25 -6z"/>
<path d="M908 993 c-10 -3 -18 -9 -18 -14 0 -5 -5 -9 -11 -9 -5 0 -7 5 -3 11
4 7 -2 9 -17 7 -24 -3 -24 -4 -24 -132 0 -115 2 -129 18 -132 20 -3 19 -10 21
102 2 96 12 124 47 124 12 0 19 7 19 19 0 23 -8 29 -32 24z"/>
<path d="M2045 992 c-11 -2 -26 -9 -34 -16 -11 -8 -15 -8 -18 2 -3 6 -13 12
-24 12 -18 0 -19 -9 -19 -129 0 -111 2 -130 17 -135 25 -10 29 4 27 102 -1 94
6 115 43 124 37 10 46 -15 47 -120 1 -53 5 -98 9 -99 34 -12 37 -3 37 90 -1
50 -6 106 -11 123 -10 33 -42 53 -74 46z"/>
<path d="M975 959 c4 -18 22 -77 39 -131 18 -55 29 -101 24 -104 -5 -3 -6 -9
-4 -13 8 -12 -23 -51 -40 -51 -8 0 -14 -9 -14 -20 0 -39 64 -17 81 28 16 40
80 262 85 295 4 22 1 27 -15 27 -18 0 -25 -11 -36 -57 -21 -88 -28 -109 -38
-118 -6 -5 -9 -6 -6 -2 4 4 -3 45 -15 90 -19 71 -25 82 -45 85 -21 3 -22 1
-16 -29z"/>
<path d="M1199 983 c-1 -11 -1 -324 0 -345 1 -15 23 -19 37 -6 3 4 6 29 6 56
l-1 50 40 -10 c52 -14 84 7 99 63 19 71 -1 179 -35 193 -25 9 -64 7 -85 -4
-13 -7 -21 -7 -25 0 -7 12 -35 14 -36 3z m144 -130 c-1 -72 -15 -93 -59 -93
-31 0 -41 18 -43 79 -3 82 6 109 37 113 48 7 66 -22 65 -99z"/>
<path d="M1614 967 c-23 -20 -28 -34 -32 -85 -2 -34 -2 -72 2 -85 22 -90 156
-100 186 -14 25 72 4 173 -39 197 -34 18 -88 12 -117 -13z m104 -30 c18 -19
25 -116 9 -147 -15 -30 -53 -37 -82 -16 -28 20 -29 134 -2 164 20 22 52 21 75
-1z"/>
<path d="M1839 975 c0 -8 0 -44 0 -80 0 -162 0 -162 20 -168 11 -3 21 0 23 7
3 9 2 189 -1 239 -1 21 -41 23 -42 2z"/>
<path d="M2377 964 c-45 -45 -48 -154 -7 -207 38 -48 115 -46 150 3 38 53 33
162 -10 208 -31 33 -99 31 -133 -4z m87 -13 c29 -11 44 -66 35 -125 -9 -52
-20 -66 -55 -66 -31 0 -56 33 -56 77 -1 69 2 83 22 103 22 22 25 22 54 11z"/>
</g>
</svg>
